<svg xmlns="http://www.w3.org/2000/svg" viewBox="0 0 64 64">
  <defs>
    <radialGradient id="glow" cx="50%" cy="50%" r="50%">
      <stop offset="0" stop-color="#fff8a8" stop-opacity=".86"/>
      <stop offset="1" stop-color="#ffd33d" stop-opacity="0"/>
    </radialGradient>
    <linearGradient id="gem" x1="0" y1="0" x2="0" y2="1">
      <stop offset="0" stop-color="#fff5a0"/>
      <stop offset=".54" stop-color="#ffb72d"/>
      <stop offset="1" stop-color="#e36c20"/>
    </linearGradient>
    <filter id="shadow" x="-20%" y="-20%" width="140%" height="150%">
      <feDropShadow dx="0" dy="4" stdDeviation="2" flood-color="#25160a" flood-opacity=".35"/>
    </filter>
  </defs>
  <circle cx="32" cy="32" r="29" fill="url(#glow)"/>
  <g filter="url(#shadow)">
    <path d="M18 25l10-8 8 8-8 10z" fill="#e9fbff" opacity=".68"/>
    <path d="M46 25l-10-8-8 8 8 10z" fill="#e9fbff" opacity=".68"/>
    <path d="M24 32l8-12 8 12-4 17h-8z" fill="url(#gem)"/>
    <path d="M32 20l8 12H24z" fill="#fff2a5" opacity=".62"/>
    <path d="M26 36h12M27 42h10" stroke="#7a3e15" stroke-opacity=".45" stroke-width="2" stroke-linecap="round"/>
    <circle cx="28" cy="26" r="2.2" fill="#fff"/>
    <circle cx="36" cy="26" r="2.2" fill="#fff"/>
    <circle cx="28" cy="26" r="1" fill="#242021"/>
    <circle cx="36" cy="26" r="1" fill="#242021"/>
  </g>
</svg>
