<svg xmlns="http://www.w3.org/2000/svg" viewBox="0 0 96 96">
  <defs>
    <radialGradient id="body" cx="42%" cy="28%" r="72%">
      <stop offset="0" stop-color="#70ffd3"/>
      <stop offset=".55" stop-color="#00c99b"/>
      <stop offset="1" stop-color="#008c70"/>
    </radialGradient>
    <radialGradient id="belly" cx="45%" cy="28%" r="70%">
      <stop offset="0" stop-color="#d7fff0"/>
      <stop offset="1" stop-color="#58e6bd"/>
    </radialGradient>
    <filter id="softShadow" x="-20%" y="-20%" width="140%" height="150%">
      <feDropShadow dx="0" dy="5" stdDeviation="3" flood-color="#003d35" flood-opacity=".38"/>
    </filter>
  </defs>
  <ellipse cx="48" cy="78" rx="28" ry="8" fill="#001b1a" opacity=".22"/>
  <g filter="url(#softShadow)">
    <ellipse cx="22" cy="56" rx="13" ry="8" fill="#00a883" transform="rotate(-28 22 56)"/>
    <ellipse cx="74" cy="56" rx="13" ry="8" fill="#00a883" transform="rotate(28 74 56)"/>
    <ellipse cx="28" cy="35" rx="10" ry="7" fill="#0ac59b" transform="rotate(-34 28 35)"/>
    <ellipse cx="68" cy="35" rx="10" ry="7" fill="#0ac59b" transform="rotate(34 68 35)"/>
    <ellipse cx="48" cy="50" rx="31" ry="27" fill="url(#body)"/>
    <ellipse cx="48" cy="58" rx="19" ry="14" fill="url(#belly)" opacity=".9"/>
    <ellipse cx="33" cy="25" rx="15" ry="17" fill="#faffff"/>
    <ellipse cx="63" cy="25" rx="15" ry="17" fill="#faffff"/>
    <circle cx="34" cy="27" r="8" fill="#143137"/>
    <circle cx="62" cy="27" r="8" fill="#143137"/>
    <circle cx="30" cy="22" r="3.3" fill="#fff" opacity=".9"/>
    <circle cx="58" cy="22" r="3.3" fill="#fff" opacity=".9"/>
    <path d="M34 58c8 8 20 8 28 0" fill="none" stroke="#006d59" stroke-width="3" stroke-linecap="round"/>
    <ellipse cx="25" cy="49" rx="6" ry="4" fill="#ff9fb4" opacity=".22"/>
    <ellipse cx="71" cy="49" rx="6" ry="4" fill="#ff9fb4" opacity=".22"/>
    <path d="M37 64c4 2 18 2 22 0" stroke="#fff" stroke-width="2" stroke-linecap="round" opacity=".18"/>
  </g>
</svg>
