<svg xmlns="http://www.w3.org/2000/svg" viewBox="0 0 96 96">
  <defs>
    <linearGradient id="green" x1="0" y1="0" x2="0" y2="1">
      <stop offset="0" stop-color="#65f2b4"/>
      <stop offset=".52" stop-color="#18c889"/>
      <stop offset="1" stop-color="#08765d"/>
    </linearGradient>
    <linearGradient id="belly" x1="0" y1="0" x2="0" y2="1">
      <stop offset="0" stop-color="#f2fff7"/>
      <stop offset="1" stop-color="#83e9c3"/>
    </linearGradient>
    <filter id="shadow" x="-20%" y="-20%" width="140%" height="150%">
      <feDropShadow dx="0" dy="6" stdDeviation="3" flood-color="#04231f" flood-opacity=".45"/>
    </filter>
  </defs>
  <ellipse cx="48" cy="79" rx="30" ry="8" fill="#061016" opacity=".24"/>
  <g filter="url(#shadow)">
    <path d="M21 57l14-10 8 13-14 9z" fill="#06966f"/>
    <path d="M75 57L61 47l-8 13 14 9z" fill="#06966f"/>
    <path d="M25 38l12-9 9 10-13 9z" fill="#16bd86"/>
    <path d="M71 38l-12-9-9 10 13 9z" fill="#16bd86"/>
    <path d="M22 43l13-18h26l13 18-6 24-20 10-20-10z" fill="url(#green)"/>
    <path d="M35 27h26l10 16H25z" fill="#7cffc3" opacity=".6"/>
    <path d="M31 45l17-16 17 16-5 21-12 7-12-7z" fill="#0aa477" opacity=".28"/>
    <path d="M35 56l13-8 13 8-5 13H40z" fill="url(#belly)"/>
    <path d="M29 23l8-10 13 8-7 16z" fill="#f8ffff"/>
    <path d="M67 23l-8-10-13 8 7 16z" fill="#f8ffff"/>
    <circle cx="38" cy="24" r="7" fill="#17272b"/>
    <circle cx="58" cy="24" r="7" fill="#17272b"/>
    <circle cx="35" cy="20" r="2.6" fill="#fff"/>
    <circle cx="55" cy="20" r="2.6" fill="#fff"/>
    <path d="M36 61c8 7 16 7 24 0" fill="none" stroke="#075b4c" stroke-width="3" stroke-linecap="round"/>
    <path d="M25 42h46M32 30l-7 13M64 30l7 13" stroke="#fff" stroke-opacity=".18" stroke-width="3" stroke-linecap="round"/>
    <path d="M31 68h34l-17 9z" fill="#05634f" opacity=".35"/>
  </g>
</svg>
