<svg xmlns="http://www.w3.org/2000/svg" viewBox="0 0 80 80">
  <rect width="80" height="80" fill="#265d1a"/>
  <path d="M0 0h80v22H0z" fill="#326d23" opacity=".72"/>
  <path d="M0 58h80v22H0z" fill="#1c4813" opacity=".35"/>
  <path d="M8 12h18l8 8-9 9H8L0 20zM45 8h22l8 8-8 9H45l-9-9zM18 45h18l9 8-9 10H18l-9-10zM51 50h16l8 7-8 9H51l-8-9z" fill="#4da23b" opacity=".56"/>
  <path d="M0 20h80M0 40h80M0 60h80M20 0v80M40 0v80M60 0v80" stroke="#ffffff" stroke-opacity=".04" stroke-width="2"/>
  <path d="M7 68c12-5 22-5 34 0M43 33c10-5 19-4 29 1M8 28c11 3 21 2 30-3" stroke="#8bd36a" stroke-opacity=".24" stroke-width="3" fill="none" stroke-linecap="round"/>
  <circle cx="15" cy="15" r="2" fill="#ffe066" opacity=".55"/>
  <circle cx="65" cy="68" r="2" fill="#ff8fb1" opacity=".42"/>
</svg>
