<svg xmlns="http://www.w3.org/2000/svg" viewBox="0 0 192 68">
  <defs>
    <linearGradient id="wood" x1="0" y1="0" x2="0" y2="1">
      <stop offset="0" stop-color="#d78b45"/>
      <stop offset=".5" stop-color="#a85a21"/>
      <stop offset="1" stop-color="#713414"/>
    </linearGradient>
    <radialGradient id="ring" cx="50%" cy="50%" r="50%">
      <stop offset="0" stop-color="#f0ad61"/>
      <stop offset=".58" stop-color="#a65a22"/>
      <stop offset="1" stop-color="#6f3112"/>
    </radialGradient>
    <filter id="shadow" x="-12%" y="-35%" width="124%" height="170%">
      <feDropShadow dx="0" dy="5" stdDeviation="3" flood-color="#05212a" flood-opacity=".38"/>
    </filter>
  </defs>
  <ellipse cx="96" cy="56" rx="86" ry="8" fill="#05212a" opacity=".26"/>
  <g filter="url(#shadow)">
    <path d="M11 24l11-11h148l11 11v24l-10 9H21l-10-9z" fill="url(#wood)" stroke="#8a4218" stroke-width="2" stroke-linejoin="round"/>
    <path d="M22 13h148l11 11H11z" fill="#e5a15b" opacity=".55"/>
    <path d="M21 49h150l-10 8H31z" fill="#632d10" opacity=".35"/>
    <g stroke="#6d3415" stroke-opacity=".55" stroke-width="3" fill="none">
      <path d="M32 16c8 13 8 26 0 39"/>
      <path d="M64 16c8 13 8 26 0 39"/>
      <path d="M96 16c8 13 8 26 0 39"/>
      <path d="M128 16c8 13 8 26 0 39"/>
      <path d="M160 16c8 13 8 26 0 39"/>
    </g>
    <g fill="#6b3011" opacity=".38">
      <ellipse cx="54" cy="36" rx="10" ry="6"/>
      <ellipse cx="114" cy="35" rx="8" ry="5"/>
      <ellipse cx="151" cy="30" rx="7" ry="4"/>
    </g>
    <g stroke="#f3b56d" stroke-opacity=".34" stroke-width="2" fill="none" stroke-linecap="round">
      <path d="M24 24c28 6 56 5 84 2"/>
      <path d="M36 42c34-4 70-3 112 2"/>
      <path d="M77 31c20 2 45 1 70-3"/>
    </g>
    <ellipse cx="21" cy="36" rx="10" ry="18" fill="url(#ring)" opacity=".94"/>
    <ellipse cx="21" cy="36" rx="6.2" ry="11.5" fill="none" stroke="#6c3212" stroke-width="2" opacity=".72"/>
    <ellipse cx="21" cy="36" rx="2.6" ry="5.2" fill="none" stroke="#ffd08b" stroke-width="1.5" opacity=".55"/>
    <ellipse cx="171" cy="36" rx="10" ry="18" fill="url(#ring)" opacity=".52"/>
    <g fill="#65c97d" opacity=".55">
      <path d="M38 15h18l-4 7H34z"/>
      <path d="M145 14h16l-4 7h-16z"/>
    </g>
    <path d="M19 23h155" stroke="#ffd09a" stroke-width="3" opacity=".22" stroke-linecap="round"/>
  </g>
</svg>
