<svg xmlns="http://www.w3.org/2000/svg" viewBox="0 0 160 40">
  <linearGradient id="water" x1="0" y1="0" x2="0" y2="1">
    <stop offset="0" stop-color="#2b9fc1"/>
    <stop offset=".55" stop-color="#167d9f"/>
    <stop offset="1" stop-color="#0d5578"/>
  </linearGradient>
  <rect width="160" height="40" fill="url(#water)"/>
  <path d="M0 0h160v8H0z" fill="#ffffff" opacity=".08"/>
  <path d="M0 32h160v8H0z" fill="#000000" opacity=".08"/>
  <path d="M0 12h20M35 13h18M70 10h28M114 12h34M9 28h34M58 30h18M94 27h28M139 29h20" stroke="#bdf7ff" stroke-opacity=".22" stroke-width="3" stroke-linecap="round"/>
  <path d="M8 22c11-3 22-3 34 0M78 21c15-4 29-4 44 0" stroke="#ecffff" stroke-opacity=".14" stroke-width="2" fill="none" stroke-linecap="round"/>
  <path d="M17 5h25l8 7-8 8H17L9 12zM96 4h25l8 8-8 8H96l-8-8z" fill="#5ccfe6" opacity=".16"/>
</svg>
