<svg xmlns="http://www.w3.org/2000/svg" viewBox="0 0 160 40">
  <linearGradient id="asphalt" x1="0" y1="0" x2="0" y2="1">
    <stop offset="0" stop-color="#6d7472"/>
    <stop offset=".5" stop-color="#4f5755"/>
    <stop offset="1" stop-color="#363d3c"/>
  </linearGradient>
  <rect width="160" height="40" fill="url(#asphalt)"/>
  <path d="M0 4h160M0 36h160" stroke="#bfc7be" stroke-opacity=".28" stroke-width="3"/>
  <path d="M0 20h22M38 20h60M114 20h22M152 20h22" stroke="#e8e0b8" stroke-opacity=".52" stroke-width="3" stroke-linecap="round"/>
  <path d="M0 0h160v8H0z" fill="#ffffff" opacity=".06"/>
  <path d="M0 32h160v8H0z" fill="#000000" opacity=".1"/>
  <path d="M14 8h28l8 8-8 8H14L6 16zM92 7h24l8 9-8 8H92l-8-8z" fill="#222827" opacity=".13"/>
  <g fill="#202726" opacity=".18">
    <circle cx="30" cy="9" r="2"/>
    <circle cx="122" cy="31" r="2"/>
    <circle cx="88" cy="11" r="1.5"/>
  </g>
</svg>
